<svg xmlns="http://www.w3.org/2000/svg" xmlns:xlink="http://www.w3.org/1999/xlink"><symbol id="icon-bar" viewBox="0 0 24 24">
  <path d="M 2 5 L 2 7 L 22 7 L 22 5 L 2 5 z M 2 11 L 2 13 L 22 13 L 22 11 L 2 11 z M 2 17 L 2 19 L 22 19 L 22 17 L 2 17 z"/>
</symbol><symbol id="icon-close" viewBox="0 0 32 32">
	<path d="M31.708 25.708c-0-0-0-0-0-0l-9.708-9.708 9.708-9.708c0-0 0-0 0-0 0.105-0.105 0.18-0.227 0.229-0.357 0.133-0.356 0.057-0.771-0.229-1.057l-4.586-4.586c-0.286-0.286-0.702-0.361-1.057-0.229-0.13 0.048-0.252 0.124-0.357 0.228 0 0-0 0-0 0l-9.708 9.708-9.708-9.708c-0-0-0-0-0-0-0.105-0.104-0.227-0.18-0.357-0.228-0.356-0.133-0.771-0.057-1.057 0.229l-4.586 4.586c-0.286 0.286-0.361 0.702-0.229 1.057 0.049 0.13 0.124 0.252 0.229 0.357 0 0 0 0 0 0l9.708 9.708-9.708 9.708c-0 0-0 0-0 0-0.104 0.105-0.18 0.227-0.229 0.357-0.133 0.355-0.057 0.771 0.229 1.057l4.586 4.586c0.286 0.286 0.702 0.361 1.057 0.229 0.13-0.049 0.252-0.124 0.357-0.229 0-0 0-0 0-0l9.708-9.708 9.708 9.708c0 0 0 0 0 0 0.105 0.105 0.227 0.18 0.357 0.229 0.356 0.133 0.771 0.057 1.057-0.229l4.586-4.586c0.286-0.286 0.362-0.702 0.229-1.057-0.049-0.13-0.124-0.252-0.229-0.357z"/>
</symbol><symbol id="icon-man">
  <path d="M4.63987 3.57246C5.48831 3.57246 6.1761 2.88467 6.1761 2.03623C6.1761 1.18779 5.48831 0.5 4.63987 0.5C3.79143 0.5 3.10364 1.18779 3.10364 2.03623C3.10364 2.88467 3.79143 3.57246 4.63987 3.57246Z"/>
  <path d="M8.86701 7.37373C7.60193 6.64142 6.56392 5.65223 5.69015 4.48854C5.1411 3.71641 3.68949 3.75672 3.09963 4.46425C2.20233 5.33727 1.44097 6.23708 0.837096 7.13739C0.590238 7.50617 0.68838 8.00515 1.05692 8.25201C1.19437 8.34414 1.34934 8.3882 1.50331 8.3882C1.76219 8.3882 2.01656 8.26327 2.17129 8.03194C2.43642 7.63711 2.73711 7.24104 3.07009 6.84671C3.05732 7.68118 3.09913 9.18686 3.12016 9.8636C3.12717 10.0889 3.07585 10.3092 2.9712 10.5093C2.14299 12.0908 1.61322 13.5873 1.07544 15.4179C0.943751 15.8648 1.19987 16.3338 1.64652 16.4652C1.74767 16.495 1.84982 16.505 1.94846 16.4975C2.28846 16.4714 2.5924 16.2399 2.69404 15.8939C3.19027 14.2059 3.66971 12.8392 4.41755 11.3921C4.4556 11.3936 4.49366 11.3936 4.53222 11.3918C5.00966 12.8164 5.48735 14.2417 5.96555 15.6663C6.3128 16.7045 7.92389 16.1653 7.57564 15.1267C7.05313 13.5692 6.53137 12.0125 6.01061 10.4552C5.98032 10.3658 5.90696 10.0158 5.8967 9.90165C5.81057 8.94226 5.77928 7.98587 5.78854 7.02823C6.52161 7.7305 7.33454 8.33963 8.2376 8.86289C9.13816 9.38565 9.75556 7.88873 8.86701 7.37373Z"/>
</symbol><symbol id="icon-metro">
  <path d="M14.8992 9.46333L11.1616 3.8147e-06L8 5.53202L4.8512 3.8147e-06L1.1008 9.46333H0V10.8976H5.6576V9.46333H4.8128L5.632 7.1071L8 11L10.368 7.1071L11.1872 9.46333H10.3424V10.8976H16V9.46333H14.8992Z"/>
</symbol></svg>